<svg width="714" height="599" viewBox="0 0 714 599" fill="none" xmlns="http://www.w3.org/2000/svg">
<path d="M249.309 320.644C193.233 129.187 59.9364 27.1076 0.297852 0H714V599C582.468 585.988 305.386 512.101 249.309 320.644Z" fill="url(#paint0_linear)"/>
<circle cx="292.445" cy="121.565" r="40.1948" transform="rotate(152.09 292.445 121.565)" fill="url(#paint1_linear)"/>
<circle cx="642.188" cy="225.056" r="27.4654" transform="rotate(48.5641 642.188 225.056)" fill="url(#paint2_linear)"/>
<circle cx="505.045" cy="429.765" r="23.517" transform="rotate(48.5641 505.045 429.765)" fill="url(#paint3_linear)"/>
<path d="M349.812 277H323.125V232.188H333.219V268.812H349.812V277Z" fill="white"/>
<path d="M373.188 277.781C366.771 277.781 361.542 275.698 357.5 271.531C353.458 267.344 351.438 261.896 351.438 255.188C351.438 248.104 353.49 242.375 357.594 238C361.698 233.625 367.135 231.438 373.906 231.438C380.302 231.438 385.469 233.531 389.406 237.719C393.365 241.906 395.344 247.427 395.344 254.281C395.344 261.323 393.292 267 389.188 271.312C385.104 275.625 379.771 277.781 373.188 277.781ZM373.625 240.125C370.083 240.125 367.271 241.458 365.188 244.125C363.104 246.771 362.062 250.281 362.062 254.656C362.062 259.094 363.104 262.604 365.188 265.188C367.271 267.771 370 269.062 373.375 269.062C376.854 269.062 379.615 267.812 381.656 265.312C383.698 262.792 384.719 259.302 384.719 254.844C384.719 250.198 383.729 246.583 381.75 244C379.771 241.417 377.062 240.125 373.625 240.125Z" fill="white"/>
<path d="M439.594 274C435.219 276.521 429.781 277.781 423.281 277.781C416.073 277.781 410.385 275.792 406.219 271.812C402.073 267.812 400 262.312 400 255.312C400 248.271 402.271 242.531 406.812 238.094C411.354 233.656 417.396 231.438 424.938 231.438C429.688 231.438 433.875 232.094 437.5 233.406V242.875C434.042 240.875 429.812 239.875 424.812 239.875C420.625 239.875 417.208 241.24 414.562 243.969C411.938 246.677 410.625 250.302 410.625 254.844C410.625 259.448 411.802 263.01 414.156 265.531C416.531 268.052 419.729 269.312 423.75 269.312C426.167 269.312 428.083 268.969 429.5 268.281V259.531H420.531V251.469H439.594V274Z" fill="white"/>
<path d="M458.406 277H448.312V232.188H458.406V277Z" fill="white"/>
<path d="M508.938 277H498.75L480.281 248.844C479.198 247.198 478.448 245.958 478.031 245.125H477.906C478.073 246.708 478.156 249.125 478.156 252.375V277H468.625V232.188H479.5L497.281 259.469C498.094 260.698 498.844 261.917 499.531 263.125H499.656C499.49 262.083 499.406 260.031 499.406 256.969V232.188H508.938V277Z" fill="white"/>
<path d="M329.098 303.871C328.566 304.137 327.867 304.27 327 304.27C324.672 304.27 323.508 303.152 323.508 300.918V294.133H321.504V292H323.508V289.223L326.227 288.449V292H329.098V294.133H326.227V300.133C326.227 300.844 326.355 301.352 326.613 301.656C326.871 301.961 327.301 302.113 327.902 302.113C328.363 302.113 328.762 301.98 329.098 301.715V303.871Z" fill="white"/>
<path d="M343.341 304.281C341.49 304.281 340.009 303.723 338.9 302.605C337.798 301.48 337.247 299.992 337.247 298.141C337.247 296.125 337.822 294.551 338.97 293.418C340.126 292.285 341.681 291.719 343.634 291.719C345.509 291.719 346.97 292.27 348.017 293.371C349.064 294.473 349.587 296 349.587 297.953C349.587 299.867 349.021 301.402 347.888 302.559C346.763 303.707 345.247 304.281 343.341 304.281ZM343.47 293.887C342.407 293.887 341.568 294.258 340.95 295C340.333 295.742 340.025 296.766 340.025 298.07C340.025 299.328 340.337 300.32 340.962 301.047C341.587 301.766 342.423 302.125 343.47 302.125C344.54 302.125 345.361 301.77 345.931 301.059C346.509 300.348 346.798 299.336 346.798 298.023C346.798 296.703 346.509 295.684 345.931 294.965C345.361 294.246 344.54 293.887 343.47 293.887Z" fill="white"/>
<path d="M381.004 303.449C380.043 304.004 378.906 304.281 377.594 304.281C375.812 304.281 374.375 303.727 373.281 302.617C372.187 301.5 371.64 300.055 371.64 298.281C371.64 296.305 372.226 294.719 373.398 293.523C374.578 292.32 376.152 291.719 378.121 291.719C379.215 291.719 380.18 291.91 381.015 292.293V294.824C380.18 294.199 379.289 293.887 378.344 293.887C377.195 293.887 376.254 294.277 375.519 295.059C374.785 295.832 374.418 296.848 374.418 298.105C374.418 299.348 374.762 300.328 375.449 301.047C376.144 301.766 377.074 302.125 378.238 302.125C379.215 302.125 380.137 301.777 381.004 301.082V303.449Z" fill="white"/>
<path d="M395.751 304.281C393.9 304.281 392.419 303.723 391.31 302.605C390.208 301.48 389.657 299.992 389.657 298.141C389.657 296.125 390.232 294.551 391.38 293.418C392.536 292.285 394.091 291.719 396.044 291.719C397.919 291.719 399.38 292.27 400.427 293.371C401.474 294.473 401.997 296 401.997 297.953C401.997 299.867 401.431 301.402 400.298 302.559C399.173 303.707 397.657 304.281 395.751 304.281ZM395.88 293.887C394.817 293.887 393.978 294.258 393.36 295C392.743 295.742 392.435 296.766 392.435 298.07C392.435 299.328 392.747 300.32 393.372 301.047C393.997 301.766 394.833 302.125 395.88 302.125C396.95 302.125 397.771 301.77 398.341 301.059C398.919 300.348 399.208 299.336 399.208 298.023C399.208 296.703 398.919 295.684 398.341 294.965C397.771 294.246 396.95 293.887 395.88 293.887Z" fill="white"/>
<path d="M422.182 304H419.463V297.238C419.463 294.996 418.67 293.875 417.084 293.875C416.256 293.875 415.573 294.188 415.034 294.812C414.495 295.43 414.225 296.211 414.225 297.156V304H411.495V292H414.225V293.992H414.272C415.17 292.477 416.467 291.719 418.162 291.719C419.467 291.719 420.463 292.145 421.151 292.996C421.838 293.84 422.182 295.062 422.182 296.664V304Z" fill="white"/>
<path d="M438.558 303.871C438.027 304.137 437.328 304.27 436.461 304.27C434.132 304.27 432.968 303.152 432.968 300.918V294.133H430.965V292H432.968V289.223L435.687 288.449V292H438.558V294.133H435.687V300.133C435.687 300.844 435.816 301.352 436.074 301.656C436.332 301.961 436.761 302.113 437.363 302.113C437.824 302.113 438.222 301.98 438.558 301.715V303.871Z" fill="white"/>
<path d="M448.993 289.48C448.548 289.48 448.165 289.336 447.845 289.047C447.532 288.758 447.376 288.391 447.376 287.945C447.376 287.5 447.532 287.129 447.845 286.832C448.165 286.535 448.548 286.387 448.993 286.387C449.454 286.387 449.845 286.535 450.165 286.832C450.485 287.129 450.645 287.5 450.645 287.945C450.645 288.367 450.485 288.73 450.165 289.035C449.845 289.332 449.454 289.48 448.993 289.48ZM450.341 304H447.622V292H450.341V304Z" fill="white"/>
<path d="M471.311 304H468.592V297.238C468.592 294.996 467.799 293.875 466.213 293.875C465.385 293.875 464.701 294.188 464.162 294.812C463.623 295.43 463.354 296.211 463.354 297.156V304H460.623V292H463.354V293.992H463.401C464.299 292.477 465.596 291.719 467.291 291.719C468.596 291.719 469.592 292.145 470.28 292.996C470.967 293.84 471.311 295.062 471.311 296.664V304Z" fill="white"/>
<path d="M491.824 304H489.105V302.102H489.058C488.269 303.555 487.042 304.281 485.378 304.281C482.542 304.281 481.125 302.578 481.125 299.172V292H483.843V298.891C483.843 301.047 484.675 302.125 486.339 302.125C487.144 302.125 487.804 301.828 488.32 301.234C488.843 300.641 489.105 299.863 489.105 298.902V292H491.824V304Z" fill="white"/>
<path d="M512.255 298.738H504.075C504.106 299.848 504.446 300.703 505.095 301.305C505.751 301.906 506.649 302.207 507.79 302.207C509.071 302.207 510.247 301.824 511.317 301.059V303.25C510.223 303.938 508.778 304.281 506.981 304.281C505.216 304.281 503.829 303.738 502.821 302.652C501.821 301.559 501.321 300.023 501.321 298.047C501.321 296.18 501.872 294.66 502.973 293.488C504.083 292.309 505.458 291.719 507.098 291.719C508.739 291.719 510.009 292.246 510.907 293.301C511.805 294.355 512.255 295.82 512.255 297.695V298.738ZM509.63 296.816C509.622 295.84 509.391 295.082 508.938 294.543C508.485 293.996 507.86 293.723 507.063 293.723C506.282 293.723 505.618 294.008 505.071 294.578C504.532 295.148 504.2 295.895 504.075 296.816H509.63Z" fill="white"/>
<defs>
<linearGradient id="paint0_linear" x1="560.083" y1="38.1055" x2="455.505" y2="660.251" gradientUnits="userSpaceOnUse">
<stop stop-color="#56F2F2"/>
<stop offset="0.629834" stop-color="#56CCF2"/>
</linearGradient>
<linearGradient id="paint1_linear" x1="260.289" y1="110.511" x2="363.791" y2="154.725" gradientUnits="userSpaceOnUse">
<stop stop-color="#56F2F2"/>
<stop offset="0.629834" stop-color="#56CCF2"/>
</linearGradient>
<linearGradient id="paint2_linear" x1="620.216" y1="217.503" x2="690.939" y2="247.715" gradientUnits="userSpaceOnUse">
<stop stop-color="#56F2F2"/>
<stop offset="0.629834" stop-color="#56CCF2"/>
</linearGradient>
<linearGradient id="paint3_linear" x1="486.231" y1="423.298" x2="546.788" y2="449.167" gradientUnits="userSpaceOnUse">
<stop stop-color="#56F2F2"/>
<stop offset="0.629834" stop-color="#56CCF2"/>
</linearGradient>
</defs>
</svg>
