<svg width="77" height="19" viewBox="0 0 77 19" fill="none" xmlns="http://www.w3.org/2000/svg">
<path d="M16.0391 18V8.78906C16.0391 7.92188 16.0664 6.96875 16.1211 5.92969L16.1562 5.15625H16.0156C15.7656 6.47656 15.5742 7.39062 15.4414 7.89844L12.9688 18H8.21094L5.62109 8.01562C5.55078 7.76562 5.36719 6.8125 5.07031 5.15625H4.92969C5.03906 7.78125 5.09375 9.42188 5.09375 10.0781V18H0.652344V1.19531H8.23438L10.543 10.3242C10.5977 10.5117 10.668 10.8945 10.7539 11.4727C10.8477 12.043 10.9062 12.4844 10.9297 12.7969H11C11.0859 12.0859 11.2227 11.2461 11.4102 10.2773L13.5664 1.19531H21.0312V18H16.0391ZM24.3477 18V1.19531H34.8125V5.15625H29.4102V7.60547H34.4844V11.5664H29.4102V14.0391H35.1992V18H24.3477ZM53.4336 9.38672C53.4336 11.0898 53.0742 12.5977 52.3555 13.9102C51.6445 15.2148 50.625 16.2227 49.2969 16.9336C47.9688 17.6445 46.4375 18 44.7031 18H37.5898V1.19531H44.5508C50.4727 1.19531 53.4336 3.92578 53.4336 9.38672ZM48.0547 9.43359C48.0547 8.61328 47.8867 7.875 47.5508 7.21875C47.2227 6.5625 46.75 6.05469 46.1328 5.69531C45.5156 5.33594 44.7891 5.15625 43.9531 5.15625H42.6523V14.0391H44.0703C45.2812 14.0391 46.2461 13.625 46.9648 12.7969C47.6914 11.9609 48.0547 10.8398 48.0547 9.43359ZM55.8008 18V1.19531H60.8633V18H55.8008ZM76.6719 17.543C75.2812 18.043 73.6758 18.293 71.8555 18.293C70.0664 18.293 68.5234 17.9531 67.2266 17.2734C65.9297 16.5859 64.9375 15.6133 64.25 14.3555C63.5703 13.0898 63.2305 11.6328 63.2305 9.98438C63.2305 8.21094 63.6133 6.63281 64.3789 5.25C65.1445 3.86719 66.2266 2.80078 67.625 2.05078C69.0234 1.29297 70.6328 0.914062 72.4531 0.914062C73.9062 0.914062 75.3125 1.08984 76.6719 1.44141V6.11719C76.2031 5.83594 75.6445 5.61719 74.9961 5.46094C74.3477 5.30469 73.6914 5.22656 73.0273 5.22656C71.6523 5.22656 70.5664 5.62109 69.7695 6.41016C68.9805 7.19922 68.5859 8.26953 68.5859 9.62109C68.5859 10.9648 68.9805 12.0273 69.7695 12.8086C70.5664 13.582 71.6289 13.9688 72.957 13.9688C74.1836 13.9688 75.4219 13.6562 76.6719 13.0312V17.543Z" fill="url(#paint0_linear)"/>
<defs>
<linearGradient id="paint0_linear" x1="90.5" y1="2" x2="80.9341" y2="41.6638" gradientUnits="userSpaceOnUse">
<stop stop-color="#56F2F2"/>
<stop offset="0.629834" stop-color="#56CCF2"/>
</linearGradient>
</defs>
</svg>
