<svg width="596" height="584" viewBox="0 0 596 584" fill="none" xmlns="http://www.w3.org/2000/svg">
<path d="M226.062 275.281V265.281C227.875 266.802 229.844 267.948 231.969 268.719C234.094 269.469 236.24 269.844 238.406 269.844C239.677 269.844 240.781 269.729 241.719 269.5C242.677 269.271 243.469 268.958 244.094 268.562C244.74 268.146 245.219 267.667 245.531 267.125C245.844 266.562 246 265.958 246 265.312C246 264.438 245.75 263.656 245.25 262.969C244.75 262.281 244.062 261.646 243.188 261.062C242.333 260.479 241.312 259.917 240.125 259.375C238.938 258.833 237.656 258.281 236.281 257.719C232.781 256.26 230.167 254.479 228.438 252.375C226.729 250.271 225.875 247.729 225.875 244.75C225.875 242.417 226.344 240.417 227.281 238.75C228.219 237.062 229.49 235.677 231.094 234.594C232.719 233.51 234.594 232.719 236.719 232.219C238.844 231.698 241.094 231.438 243.469 231.438C245.802 231.438 247.865 231.583 249.656 231.875C251.469 232.146 253.135 232.573 254.656 233.156V242.5C253.906 241.979 253.083 241.521 252.188 241.125C251.312 240.729 250.406 240.406 249.469 240.156C248.531 239.885 247.594 239.688 246.656 239.562C245.74 239.438 244.865 239.375 244.031 239.375C242.885 239.375 241.844 239.49 240.906 239.719C239.969 239.927 239.177 240.229 238.531 240.625C237.885 241.021 237.385 241.5 237.031 242.062C236.677 242.604 236.5 243.219 236.5 243.906C236.5 244.656 236.698 245.333 237.094 245.938C237.49 246.521 238.052 247.083 238.781 247.625C239.51 248.146 240.396 248.667 241.438 249.188C242.479 249.688 243.656 250.208 244.969 250.75C246.76 251.5 248.365 252.302 249.781 253.156C251.219 253.99 252.448 254.938 253.469 256C254.49 257.062 255.271 258.281 255.812 259.656C256.354 261.01 256.625 262.594 256.625 264.406C256.625 266.906 256.146 269.01 255.188 270.719C254.25 272.406 252.969 273.781 251.344 274.844C249.719 275.885 247.823 276.635 245.656 277.094C243.51 277.552 241.24 277.781 238.844 277.781C236.385 277.781 234.042 277.573 231.812 277.156C229.604 276.74 227.688 276.115 226.062 275.281Z" fill="url(#paint0_linear)"/>
<path d="M274.094 277H264V232.188H274.094V277Z" fill="url(#paint1_linear)"/>
<path d="M321.094 274C316.719 276.521 311.281 277.781 304.781 277.781C297.573 277.781 291.885 275.792 287.719 271.812C283.573 267.812 281.5 262.312 281.5 255.312C281.5 248.271 283.771 242.531 288.312 238.094C292.854 233.656 298.896 231.438 306.438 231.438C311.188 231.438 315.375 232.094 319 233.406V242.875C315.542 240.875 311.312 239.875 306.312 239.875C302.125 239.875 298.708 241.24 296.062 243.969C293.438 246.677 292.125 250.302 292.125 254.844C292.125 259.448 293.302 263.01 295.656 265.531C298.031 268.052 301.229 269.312 305.25 269.312C307.667 269.312 309.583 268.969 311 268.281V259.531H302.031V251.469H321.094V274Z" fill="url(#paint2_linear)"/>
<path d="M370.125 277H359.938L341.469 248.844C340.385 247.198 339.635 245.958 339.219 245.125H339.094C339.26 246.708 339.344 249.125 339.344 252.375V277H329.812V232.188H340.688L358.469 259.469C359.281 260.698 360.031 261.917 360.719 263.125H360.844C360.677 262.083 360.594 260.031 360.594 256.969V232.188H370.125V277Z" fill="url(#paint3_linear)"/>
<path d="M416.906 257.594C416.906 271.052 410.635 277.781 398.094 277.781C385.927 277.781 379.844 271.208 379.844 258.062V232.188H389.969V258.188C389.969 265.438 392.802 269.062 398.469 269.062C404.031 269.062 406.812 265.562 406.812 258.562V232.188H416.906V257.594Z" fill="url(#paint4_linear)"/>
<path d="M436.781 261.562V277H426.688V232.188H442.5C453.792 232.188 459.438 236.948 459.438 246.469C459.438 250.969 457.812 254.615 454.562 257.406C451.333 260.177 447.01 261.562 441.594 261.562H436.781ZM436.781 239.938V253.906H440.75C446.125 253.906 448.812 251.552 448.812 246.844C448.812 242.24 446.125 239.938 440.75 239.938H436.781Z" fill="url(#paint5_linear)"/>
<path d="M233.09 303.859C232.574 304.117 232.012 304.246 231.402 304.246C229.465 304.246 228.496 303.129 228.496 300.895V293.312H226.387V292H228.496V288.977L229.996 288.484V292H233.09V293.312H229.996V300.66C229.996 301.473 230.129 302.059 230.395 302.418C230.66 302.777 231.109 302.957 231.742 302.957C232.211 302.957 232.66 302.816 233.09 302.535V303.859Z" fill="url(#paint6_linear)"/>
<path d="M247.017 304.281C246.126 304.281 245.325 304.133 244.615 303.836C243.911 303.539 243.31 303.121 242.81 302.582C242.31 302.035 241.927 301.383 241.661 300.625C241.396 299.867 241.263 299.027 241.263 298.105C241.263 297.105 241.404 296.211 241.685 295.422C241.966 294.633 242.365 293.965 242.88 293.418C243.404 292.863 244.032 292.441 244.767 292.152C245.501 291.863 246.322 291.719 247.228 291.719C248.095 291.719 248.876 291.863 249.572 292.152C250.267 292.434 250.857 292.844 251.341 293.383C251.825 293.922 252.197 294.578 252.454 295.352C252.712 296.125 252.841 297.004 252.841 297.988C252.841 298.926 252.704 299.781 252.431 300.555C252.165 301.32 251.782 301.98 251.282 302.535C250.782 303.09 250.173 303.52 249.454 303.824C248.736 304.129 247.923 304.281 247.017 304.281ZM247.134 293.02C246.478 293.02 245.884 293.133 245.353 293.359C244.822 293.586 244.365 293.918 243.982 294.355C243.607 294.785 243.318 295.316 243.115 295.949C242.911 296.574 242.81 297.285 242.81 298.082C242.81 298.832 242.911 299.508 243.115 300.109C243.318 300.711 243.603 301.227 243.97 301.656C244.345 302.086 244.798 302.418 245.329 302.652C245.861 302.879 246.454 302.992 247.111 302.992C247.782 302.992 248.376 302.883 248.892 302.664C249.407 302.438 249.845 302.113 250.204 301.691C250.564 301.262 250.833 300.738 251.013 300.121C251.2 299.504 251.294 298.801 251.294 298.012C251.294 296.395 250.935 295.16 250.216 294.309C249.497 293.449 248.47 293.02 247.134 293.02Z" fill="url(#paint7_linear)"/>
<path d="M283.871 303.461C282.98 304 281.902 304.277 280.637 304.293C279.777 304.301 279.004 304.152 278.316 303.848C277.629 303.543 277.043 303.121 276.558 302.582C276.074 302.035 275.703 301.395 275.445 300.66C275.187 299.918 275.058 299.113 275.058 298.246C275.058 297.348 275.195 296.504 275.469 295.715C275.742 294.918 276.14 294.227 276.664 293.641C277.187 293.047 277.828 292.578 278.586 292.234C279.344 291.891 280.211 291.719 281.187 291.719C282.18 291.719 283.086 291.91 283.906 292.293V293.887C283.031 293.309 282.086 293.02 281.07 293.02C280.359 293.02 279.726 293.156 279.172 293.43C278.617 293.695 278.148 294.062 277.765 294.531C277.39 294.992 277.101 295.535 276.898 296.16C276.703 296.777 276.605 297.434 276.605 298.129C276.605 298.77 276.687 299.383 276.851 299.969C277.023 300.555 277.281 301.074 277.625 301.527C277.976 301.973 278.418 302.328 278.949 302.594C279.48 302.859 280.105 302.992 280.824 302.992C281.949 302.992 282.965 302.656 283.871 301.984V303.461Z" fill="url(#paint8_linear)"/>
<path d="M298.396 304.281C297.505 304.281 296.704 304.133 295.993 303.836C295.29 303.539 294.689 303.121 294.189 302.582C293.689 302.035 293.306 301.383 293.04 300.625C292.775 299.867 292.642 299.027 292.642 298.105C292.642 297.105 292.782 296.211 293.064 295.422C293.345 294.633 293.743 293.965 294.259 293.418C294.782 292.863 295.411 292.441 296.146 292.152C296.88 291.863 297.7 291.719 298.607 291.719C299.474 291.719 300.255 291.863 300.95 292.152C301.646 292.434 302.235 292.844 302.72 293.383C303.204 293.922 303.575 294.578 303.833 295.352C304.091 296.125 304.22 297.004 304.22 297.988C304.22 298.926 304.083 299.781 303.81 300.555C303.544 301.32 303.161 301.98 302.661 302.535C302.161 303.09 301.552 303.52 300.833 303.824C300.114 304.129 299.302 304.281 298.396 304.281ZM298.513 293.02C297.857 293.02 297.263 293.133 296.732 293.359C296.2 293.586 295.743 293.918 295.36 294.355C294.985 294.785 294.696 295.316 294.493 295.949C294.29 296.574 294.189 297.285 294.189 298.082C294.189 298.832 294.29 299.508 294.493 300.109C294.696 300.711 294.982 301.227 295.349 301.656C295.724 302.086 296.177 302.418 296.708 302.652C297.239 302.879 297.833 302.992 298.489 302.992C299.161 302.992 299.755 302.883 300.271 302.664C300.786 302.438 301.224 302.113 301.583 301.691C301.942 301.262 302.212 300.738 302.392 300.121C302.579 299.504 302.673 298.801 302.673 298.012C302.673 296.395 302.314 295.16 301.595 294.309C300.876 293.449 299.849 293.02 298.513 293.02Z" fill="url(#paint9_linear)"/>
<path d="M322.061 304V297.086C322.061 294.375 321.077 293.02 319.108 293.02C318.584 293.02 318.1 293.125 317.655 293.336C317.209 293.539 316.823 293.824 316.495 294.191C316.174 294.559 315.92 294.996 315.733 295.504C315.553 296.004 315.463 296.547 315.463 297.133V304H313.963V292H315.463V294.086H315.51C316.401 292.508 317.741 291.719 319.53 291.719C320.842 291.719 321.842 292.145 322.53 292.996C323.217 293.848 323.561 295.078 323.561 296.688V304H322.061Z" fill="url(#paint10_linear)"/>
<path d="M339.058 303.859C338.543 304.117 337.98 304.246 337.371 304.246C335.433 304.246 334.465 303.129 334.465 300.895V293.312H332.355V292H334.465V288.977L335.965 288.484V292H339.058V293.312H335.965V300.66C335.965 301.473 336.097 302.059 336.363 302.418C336.629 302.777 337.078 302.957 337.711 302.957C338.179 302.957 338.629 302.816 339.058 302.535V303.859Z" fill="url(#paint11_linear)"/>
<path d="M349.001 288.965C348.712 288.965 348.462 288.863 348.251 288.66C348.04 288.457 347.935 288.199 347.935 287.887C347.935 287.582 348.04 287.332 348.251 287.137C348.462 286.934 348.712 286.832 349.001 286.832C349.149 286.832 349.29 286.859 349.423 286.914C349.556 286.961 349.669 287.031 349.763 287.125C349.864 287.219 349.942 287.332 349.997 287.465C350.06 287.59 350.091 287.73 350.091 287.887C350.091 288.035 350.063 288.176 350.009 288.309C349.954 288.441 349.876 288.559 349.774 288.66C349.673 288.754 349.556 288.828 349.423 288.883C349.298 288.938 349.157 288.965 349.001 288.965ZM348.263 304V292H349.763V304H348.263Z" fill="url(#paint12_linear)"/>
<path d="M368.447 304V297.086C368.447 294.375 367.463 293.02 365.494 293.02C364.971 293.02 364.487 293.125 364.041 293.336C363.596 293.539 363.209 293.824 362.881 294.191C362.561 294.559 362.307 294.996 362.119 295.504C361.94 296.004 361.85 296.547 361.85 297.133V304H360.35V292H361.85V294.086H361.897C362.787 292.508 364.127 291.719 365.916 291.719C367.229 291.719 368.229 292.145 368.916 292.996C369.604 293.848 369.947 295.078 369.947 296.688V304H368.447Z" fill="url(#paint13_linear)"/>
<path d="M388.14 304V301.961H388.093C387.281 303.508 386.019 304.281 384.308 304.281C381.457 304.281 380.031 302.539 380.031 299.055V292H381.531V298.773C381.531 300.211 381.785 301.273 382.292 301.961C382.808 302.648 383.593 302.992 384.648 302.992C385.164 302.992 385.632 302.895 386.054 302.699C386.484 302.496 386.851 302.215 387.156 301.855C387.468 301.488 387.71 301.051 387.882 300.543C388.054 300.035 388.14 299.473 388.14 298.855V292H389.64V304H388.14Z" fill="url(#paint14_linear)"/>
<path d="M400.942 298.27C400.95 299.004 401.048 299.664 401.235 300.25C401.423 300.836 401.692 301.332 402.044 301.738C402.395 302.145 402.821 302.457 403.321 302.676C403.829 302.887 404.399 302.992 405.032 302.992C406.384 302.992 407.661 302.52 408.864 301.574V303.051C407.716 303.871 406.325 304.281 404.692 304.281C403.887 304.281 403.157 304.141 402.501 303.859C401.845 303.578 401.286 303.172 400.825 302.641C400.364 302.102 400.009 301.441 399.759 300.66C399.509 299.879 399.384 298.988 399.384 297.988C399.384 297.09 399.52 296.258 399.794 295.492C400.067 294.727 400.446 294.066 400.93 293.512C401.415 292.949 401.989 292.512 402.653 292.199C403.317 291.879 404.044 291.719 404.833 291.719C405.606 291.719 406.29 291.855 406.884 292.129C407.477 292.395 407.973 292.777 408.372 293.277C408.778 293.777 409.087 294.387 409.298 295.105C409.509 295.824 409.614 296.629 409.614 297.52V298.27H400.942ZM408.067 296.957C408.044 295.707 407.747 294.738 407.177 294.051C406.606 293.363 405.813 293.02 404.798 293.02C404.29 293.02 403.817 293.109 403.38 293.289C402.95 293.469 402.571 293.73 402.243 294.074C401.915 294.41 401.641 294.824 401.423 295.316C401.212 295.801 401.063 296.348 400.977 296.957H408.067Z" fill="url(#paint15_linear)"/>
<mask id="mask0" mask-type="alpha" maskUnits="userSpaceOnUse" x="0" y="0" width="596" height="584">
<rect width="596" height="584" fill="#C4C4C4"/>
</mask>
<g mask="url(#mask0)">
<circle cx="586" cy="152" r="321.5" stroke="url(#paint16_linear)" stroke-width="5"/>
<circle cx="409" cy="120" r="321.5" stroke="url(#paint17_linear)" stroke-width="5"/>
<circle cx="484.147" cy="206.147" r="321.5" transform="rotate(39.5669 484.147 206.147)" stroke="url(#paint18_linear)" stroke-width="5"/>
<circle cx="209" cy="134" r="14" fill="url(#paint19_linear)"/>
<circle cx="494" cy="512" r="10" fill="url(#paint20_linear)"/>
<circle cx="114.5" cy="10.5" r="10.5" fill="url(#paint21_linear)"/>
</g>
<defs>
<linearGradient id="paint0_linear" x1="476.538" y1="206.963" x2="476.737" y2="303.396" gradientUnits="userSpaceOnUse">
<stop stop-color="#56F2F2"/>
<stop offset="0.629834" stop-color="#56CCF2"/>
</linearGradient>
<linearGradient id="paint1_linear" x1="476.538" y1="206.963" x2="476.737" y2="303.396" gradientUnits="userSpaceOnUse">
<stop stop-color="#56F2F2"/>
<stop offset="0.629834" stop-color="#56CCF2"/>
</linearGradient>
<linearGradient id="paint2_linear" x1="476.538" y1="206.963" x2="476.737" y2="303.396" gradientUnits="userSpaceOnUse">
<stop stop-color="#56F2F2"/>
<stop offset="0.629834" stop-color="#56CCF2"/>
</linearGradient>
<linearGradient id="paint3_linear" x1="476.538" y1="206.963" x2="476.737" y2="303.396" gradientUnits="userSpaceOnUse">
<stop stop-color="#56F2F2"/>
<stop offset="0.629834" stop-color="#56CCF2"/>
</linearGradient>
<linearGradient id="paint4_linear" x1="476.538" y1="206.963" x2="476.737" y2="303.396" gradientUnits="userSpaceOnUse">
<stop stop-color="#56F2F2"/>
<stop offset="0.629834" stop-color="#56CCF2"/>
</linearGradient>
<linearGradient id="paint5_linear" x1="476.538" y1="206.963" x2="476.737" y2="303.396" gradientUnits="userSpaceOnUse">
<stop stop-color="#56F2F2"/>
<stop offset="0.629834" stop-color="#56CCF2"/>
</linearGradient>
<linearGradient id="paint6_linear" x1="476.538" y1="206.963" x2="476.737" y2="303.396" gradientUnits="userSpaceOnUse">
<stop stop-color="#56F2F2"/>
<stop offset="0.629834" stop-color="#56CCF2"/>
</linearGradient>
<linearGradient id="paint7_linear" x1="476.538" y1="206.963" x2="476.737" y2="303.396" gradientUnits="userSpaceOnUse">
<stop stop-color="#56F2F2"/>
<stop offset="0.629834" stop-color="#56CCF2"/>
</linearGradient>
<linearGradient id="paint8_linear" x1="476.538" y1="206.963" x2="476.737" y2="303.396" gradientUnits="userSpaceOnUse">
<stop stop-color="#56F2F2"/>
<stop offset="0.629834" stop-color="#56CCF2"/>
</linearGradient>
<linearGradient id="paint9_linear" x1="476.538" y1="206.963" x2="476.737" y2="303.396" gradientUnits="userSpaceOnUse">
<stop stop-color="#56F2F2"/>
<stop offset="0.629834" stop-color="#56CCF2"/>
</linearGradient>
<linearGradient id="paint10_linear" x1="476.538" y1="206.963" x2="476.737" y2="303.396" gradientUnits="userSpaceOnUse">
<stop stop-color="#56F2F2"/>
<stop offset="0.629834" stop-color="#56CCF2"/>
</linearGradient>
<linearGradient id="paint11_linear" x1="476.538" y1="206.963" x2="476.737" y2="303.396" gradientUnits="userSpaceOnUse">
<stop stop-color="#56F2F2"/>
<stop offset="0.629834" stop-color="#56CCF2"/>
</linearGradient>
<linearGradient id="paint12_linear" x1="476.538" y1="206.963" x2="476.737" y2="303.396" gradientUnits="userSpaceOnUse">
<stop stop-color="#56F2F2"/>
<stop offset="0.629834" stop-color="#56CCF2"/>
</linearGradient>
<linearGradient id="paint13_linear" x1="476.538" y1="206.963" x2="476.737" y2="303.396" gradientUnits="userSpaceOnUse">
<stop stop-color="#56F2F2"/>
<stop offset="0.629834" stop-color="#56CCF2"/>
</linearGradient>
<linearGradient id="paint14_linear" x1="476.538" y1="206.963" x2="476.737" y2="303.396" gradientUnits="userSpaceOnUse">
<stop stop-color="#56F2F2"/>
<stop offset="0.629834" stop-color="#56CCF2"/>
</linearGradient>
<linearGradient id="paint15_linear" x1="476.538" y1="206.963" x2="476.737" y2="303.396" gradientUnits="userSpaceOnUse">
<stop stop-color="#56F2F2"/>
<stop offset="0.629834" stop-color="#56CCF2"/>
</linearGradient>
<linearGradient id="paint16_linear" x1="446" y1="-6.50001" x2="723.577" y2="78.691" gradientUnits="userSpaceOnUse">
<stop offset="0.0383523" stop-color="#56F2F2" stop-opacity="0"/>
<stop offset="0.629834" stop-color="#56CCF2"/>
</linearGradient>
<linearGradient id="paint17_linear" x1="409" y1="438.5" x2="520.026" y2="-19.8216" gradientUnits="userSpaceOnUse">
<stop offset="0.110497" stop-color="#56F2F2" stop-opacity="0"/>
<stop offset="1" stop-color="#56CCF2"/>
</linearGradient>
<linearGradient id="paint18_linear" x1="562.647" y1="515.647" x2="585.667" y2="187.128" gradientUnits="userSpaceOnUse">
<stop offset="0.121547" stop-color="#56F2F2" stop-opacity="0"/>
<stop offset="0.629834" stop-color="#56CCF2"/>
</linearGradient>
<linearGradient id="paint19_linear" x1="197.8" y1="130.15" x2="233.85" y2="145.55" gradientUnits="userSpaceOnUse">
<stop stop-color="#56F2F2"/>
<stop offset="0.629834" stop-color="#56CCF2"/>
</linearGradient>
<linearGradient id="paint20_linear" x1="486" y1="509.25" x2="511.75" y2="520.25" gradientUnits="userSpaceOnUse">
<stop stop-color="#56F2F2"/>
<stop offset="0.629834" stop-color="#56CCF2"/>
</linearGradient>
<linearGradient id="paint21_linear" x1="106.1" y1="7.6125" x2="133.137" y2="19.1625" gradientUnits="userSpaceOnUse">
<stop stop-color="#56F2F2"/>
<stop offset="0.629834" stop-color="#56CCF2"/>
</linearGradient>
</defs>
</svg>
